<svg viewBox="0 0 682 159" fill="none" xmlns="http://www.w3.org/2000/svg">
<path d="M52.4533 159L0 129.666L0.199446 107.69L72.4972 147.438L52.4533 159Z" fill="#020202"/>
<path d="M0.0569634 68.7323V45.9804L101.982 101.56V126.117L0.0569634 68.7323Z" fill="#020202"/>
<path d="M101.947 40.8455L102 63.9963L30.5783 23.15L50.046 12L101.947 40.8455Z" fill="#020202"/>
<path d="M154.7 97.8H167.228C167.3 100.104 168.164 101.94 169.82 103.308C171.476 104.676 173.78 105.36 176.732 105.36C179.9 105.36 182.276 104.784 183.86 103.632C185.516 102.48 186.344 100.932 186.344 98.988C186.344 97.692 185.912 96.54 185.048 95.532C184.184 94.524 182.564 93.768 180.188 93.264L170.576 90.996C165.752 89.916 162.152 88.188 159.776 85.812C157.472 83.364 156.32 80.016 156.32 75.768C156.32 72.312 157.22 69.324 159.02 66.804C160.892 64.284 163.412 62.376 166.58 61.08C169.748 59.712 173.384 59.028 177.488 59.028C181.448 59.028 184.94 59.748 187.964 61.188C190.988 62.628 193.328 64.644 194.984 67.236C196.712 69.828 197.612 72.852 197.684 76.308H185.156C185.156 74.004 184.436 72.204 182.996 70.908C181.556 69.54 179.54 68.856 176.948 68.856C174.356 68.856 172.34 69.432 170.9 70.584C169.46 71.736 168.74 73.284 168.74 75.228C168.74 78.18 171.044 80.196 175.652 81.276L185.264 83.544C189.728 84.552 193.076 86.172 195.308 88.404C197.612 90.636 198.764 93.804 198.764 97.908C198.764 101.508 197.828 104.64 195.956 107.304C194.084 109.896 191.456 111.912 188.072 113.352C184.688 114.72 180.8 115.404 176.408 115.404C169.784 115.404 164.492 113.784 160.532 110.544C156.644 107.304 154.7 103.056 154.7 97.8ZM205.664 87.216C205.664 81.744 206.78 76.884 209.012 72.636C211.316 68.388 214.448 65.076 218.408 62.7C222.44 60.252 227.084 59.028 232.34 59.028C239.612 59.028 245.552 60.936 250.16 64.752C254.84 68.496 257.54 73.572 258.26 79.98H245.084C244.292 76.956 242.816 74.688 240.656 73.176C238.568 71.592 235.94 70.8 232.772 70.8C230.036 70.8 227.588 71.484 225.428 72.852C223.34 74.148 221.72 76.02 220.568 78.468C219.416 80.916 218.84 83.832 218.84 87.216C218.84 90.6 219.38 93.516 220.46 95.964C221.54 98.412 223.088 100.32 225.104 101.688C227.192 102.984 229.64 103.632 232.448 103.632C235.76 103.632 238.496 102.84 240.656 101.256C242.888 99.672 244.364 97.404 245.084 94.452H258.368C257.792 98.628 256.316 102.3 253.94 105.468C251.636 108.564 248.648 111.012 244.976 112.812C241.304 114.54 237.128 115.404 232.448 115.404C227.048 115.404 222.332 114.252 218.3 111.948C214.268 109.572 211.136 106.296 208.904 102.12C206.744 97.872 205.664 92.904 205.664 87.216ZM284.051 115.404C278.435 115.404 273.971 113.892 270.659 110.868C267.419 107.772 265.799 103.74 265.799 98.772C265.799 93.876 267.491 89.988 270.875 87.108C274.331 84.156 279.227 82.428 285.563 81.924L301.547 80.628V79.44C301.547 76.992 301.079 75.048 300.143 73.608C299.279 72.096 298.019 71.016 296.363 70.368C294.707 69.648 292.763 69.288 290.531 69.288C286.643 69.288 283.655 70.08 281.567 71.664C279.479 73.176 278.435 75.336 278.435 78.144H267.203C267.203 74.256 268.175 70.908 270.119 68.1C272.135 65.22 274.943 62.988 278.543 61.404C282.215 59.82 286.427 59.028 291.179 59.028C296.003 59.028 300.143 59.892 303.599 61.62C307.055 63.276 309.719 65.796 311.591 69.18C313.463 72.492 314.399 76.632 314.399 81.6V114H302.843L301.871 106.116C300.719 108.852 298.487 111.084 295.175 112.812C291.935 114.54 288.227 115.404 284.051 115.404ZM288.263 105.468C292.367 105.468 295.607 104.316 297.983 102.012C300.431 99.708 301.655 96.504 301.655 92.4V89.592L290.531 90.456C286.427 90.816 283.511 91.68 281.783 93.048C280.055 94.344 279.191 96.072 279.191 98.232C279.191 100.608 279.983 102.408 281.567 103.632C283.151 104.856 285.383 105.468 288.263 105.468ZM340.519 114H327.343V60.648H339.547L340.627 67.56C342.283 64.896 344.623 62.808 347.647 61.296C350.743 59.784 354.091 59.028 357.691 59.028C364.387 59.028 369.427 61.008 372.811 64.968C376.267 68.928 377.995 74.328 377.995 81.168V114H364.819V84.3C364.819 79.836 363.811 76.524 361.795 74.364C359.779 72.132 357.043 71.016 353.587 71.016C349.483 71.016 346.279 72.312 343.975 74.904C341.671 77.496 340.519 80.952 340.519 85.272V114ZM401.869 114L384.589 60.648H398.305L405.325 83.544C405.901 85.632 406.477 87.828 407.053 90.132C407.629 92.436 408.133 94.848 408.565 97.368C408.925 95.64 409.249 94.056 409.537 92.616C409.897 91.176 410.293 89.772 410.725 88.404C411.157 86.964 411.661 85.344 412.237 83.544L419.581 60.648H432.973L440.101 83.544C440.245 84.048 440.461 84.912 440.749 86.136C441.109 87.288 441.469 88.548 441.829 89.916C442.189 91.284 442.513 92.652 442.801 94.02C443.161 95.316 443.413 96.432 443.557 97.368C443.845 96 444.205 94.452 444.637 92.724C445.069 90.996 445.501 89.34 445.933 87.756C446.437 86.1 446.833 84.696 447.121 83.544L454.249 60.648H468.181L449.713 114H437.401L430.057 90.888C428.977 87.36 428.113 84.372 427.465 81.924C426.817 79.404 426.385 77.46 426.169 76.092C425.953 77.388 425.557 79.116 424.981 81.276C424.405 83.436 423.433 86.712 422.065 91.104L414.721 114H401.869ZM470.496 87.216C470.496 81.672 471.72 76.812 474.168 72.636C476.616 68.388 480 65.076 484.32 62.7C488.64 60.324 493.536 59.136 499.008 59.136C504.552 59.136 509.448 60.324 513.696 62.7C518.016 65.076 521.4 68.388 523.848 72.636C526.296 76.812 527.52 81.672 527.52 87.216C527.52 92.76 526.296 97.656 523.848 101.904C521.4 106.08 518.016 109.356 513.696 111.732C509.448 114.108 504.552 115.296 499.008 115.296C493.536 115.296 488.64 114.108 484.32 111.732C480 109.356 476.616 106.08 474.168 101.904C471.72 97.656 470.496 92.76 470.496 87.216ZM483.672 87.216C483.672 90.456 484.32 93.3 485.616 95.748C486.984 98.196 488.784 100.104 491.016 101.472C493.32 102.84 495.984 103.524 499.008 103.524C502.032 103.524 504.696 102.84 507 101.472C509.304 100.104 511.104 98.196 512.4 95.748C513.696 93.3 514.344 90.456 514.344 87.216C514.344 83.904 513.696 81.06 512.4 78.684C511.104 76.236 509.304 74.328 507 72.96C504.696 71.592 502.032 70.908 499.008 70.908C495.984 70.908 493.32 71.592 491.016 72.96C488.784 74.328 486.984 76.236 485.616 78.684C484.32 81.06 483.672 83.904 483.672 87.216ZM571.444 60.432V72.636H566.584C561.76 72.636 557.98 73.932 555.244 76.524C552.508 79.044 551.14 82.896 551.14 88.08V114H537.964V60.756H550.384L551.464 71.772H550.168C550.888 68.244 552.58 65.364 555.244 63.132C557.908 60.9 561.364 59.784 565.612 59.784C566.548 59.784 567.484 59.82 568.42 59.892C569.356 59.964 570.364 60.144 571.444 60.432ZM593.647 114H580.579V33.648H593.647V83.004L614.383 60.648H630.907L610.603 81.816L630.475 114H615.355L601.423 91.536L593.647 99.636V114ZM634.372 97.8H646.9C646.972 100.104 647.836 101.94 649.492 103.308C651.148 104.676 653.452 105.36 656.404 105.36C659.572 105.36 661.948 104.784 663.532 103.632C665.188 102.48 666.016 100.932 666.016 98.988C666.016 97.692 665.584 96.54 664.72 95.532C663.856 94.524 662.236 93.768 659.86 93.264L650.248 90.996C645.424 89.916 641.824 88.188 639.448 85.812C637.144 83.364 635.992 80.016 635.992 75.768C635.992 72.312 636.892 69.324 638.692 66.804C640.564 64.284 643.084 62.376 646.252 61.08C649.42 59.712 653.056 59.028 657.16 59.028C661.12 59.028 664.612 59.748 667.636 61.188C670.66 62.628 673 64.644 674.656 67.236C676.384 69.828 677.284 72.852 677.356 76.308H664.828C664.828 74.004 664.108 72.204 662.668 70.908C661.228 69.54 659.212 68.856 656.62 68.856C654.028 68.856 652.012 69.432 650.572 70.584C649.132 71.736 648.412 73.284 648.412 75.228C648.412 78.18 650.716 80.196 655.324 81.276L664.936 83.544C669.4 84.552 672.748 86.172 674.98 88.404C677.284 90.636 678.436 93.804 678.436 97.908C678.436 101.508 677.5 104.64 675.628 107.304C673.756 109.896 671.128 111.912 667.744 113.352C664.36 114.72 660.472 115.404 656.08 115.404C649.456 115.404 644.164 113.784 640.204 110.544C636.316 107.304 634.372 103.056 634.372 97.8Z" fill="black"/>
</svg>

